<svg width="12" height="12" viewBox="0 0 12 12" fill="none" xmlns="http://www.w3.org/2000/svg">
<path d="M9.81997 2.48997C9.62555 2.2994 9.3144 2.2994 9.11997 2.48997L4.37997 7.22997L2.87997 5.73997C2.78924 5.6433 2.66256 5.58846 2.52997 5.58846C2.39739 5.58846 2.27071 5.6433 2.17997 5.73997L1.64997 6.26997C1.55532 6.36386 1.50208 6.49166 1.50208 6.62497C1.50208 6.75829 1.55532 6.88609 1.64997 6.97997L3.99997 9.34997C4.09071 9.44665 4.21739 9.50149 4.34997 9.50149C4.48256 9.50149 4.60924 9.44665 4.69997 9.34997L10.32 3.72997C10.4146 3.63609 10.4679 3.50829 10.4679 3.37497C10.4679 3.24166 10.4146 3.11386 10.32 3.01997L9.81997 2.48997Z" fill="white"/>
</svg>
