<svg width="106" height="106" viewBox="0 0 106 106" fill="none" xmlns="http://www.w3.org/2000/svg">
<g clip-path="url(#Donut-clip0)">
<path d="M52.9997 2.60059C24.6861 2.60059 1.7334 25.5533 1.7334 53.8669C1.7334 82.1805 24.6861 105.133 52.9997 105.133C81.3133 105.133 104.266 82.1803 104.266 53.8667C104.266 25.5531 81.3135 2.60059 52.9997 2.60059ZM52.9997 72.0043C42.9827 72.0043 34.8623 63.8839 34.8623 53.8669C34.8623 43.8499 42.9827 35.7295 52.9997 35.7295C63.0167 35.7295 71.1371 43.8499 71.1371 53.8669C71.1371 63.8839 63.0169 72.0043 52.9997 72.0043Z" fill="url(#Donut-paint0_linear)"/>
<path d="M53.0003 12.5068C30.1579 12.5068 11.6406 31.0241 11.6406 53.8665C11.6406 76.7089 30.1581 95.2264 53.0003 95.2264C75.8425 95.2264 94.36 76.7091 94.36 53.8667C94.36 31.0243 75.8427 12.5068 53.0003 12.5068ZM53.0003 72.0041C42.9833 72.0041 34.8629 63.8837 34.8629 53.8667C34.8629 43.8497 42.9833 35.7293 53.0003 35.7293C63.0173 35.7293 71.1377 43.8497 71.1377 53.8667C71.1377 63.8837 63.0175 72.0041 53.0003 72.0041Z" fill="url(#Donut-paint1_radial)"/>
<path d="M52.8964 0.86729C24.0037 0.921739 -0.0568328 25.0815 0.000100833 53.9737C0.00755396 58.2855 0.532585 62.4759 1.51101 66.4856C3.11571 73.0611 9.0573 77.6554 15.826 77.6554C16.8663 77.6554 17.8568 77.4473 18.7582 77.0709C19.6819 76.6846 20.514 76.1223 21.21 75.424C22.5895 74.047 23.4414 72.1423 23.4414 70.0397C23.4414 68.757 23.9615 67.5953 24.8012 66.7558C25.6409 65.9161 26.8024 65.396 28.0851 65.396C29.3679 65.396 30.5296 65.9161 31.3691 66.7558C32.2086 67.5953 32.7288 68.757 32.7288 70.0397V83.1214C32.7288 88.7187 37.2661 93.2558 42.8632 93.2558H42.8657C48.463 93.2558 53.0001 88.7185 53.0001 83.1214V82.9355C53.0001 80.2236 55.1967 78.0268 57.9088 78.0268C59.2661 78.0268 60.4919 78.5765 61.3811 79.4632C62.2679 80.3524 62.8175 81.5807 62.8175 82.9355C62.8175 84.4833 63.4442 85.8853 64.4595 86.8981C65.4725 87.9134 66.8743 88.5401 68.4221 88.5401H69.1007C72.1965 88.5401 74.7055 86.0312 74.7055 82.9353V72.2684C74.7055 69.294 77.1178 66.8817 80.0922 66.8817C81.5806 66.8817 82.9254 67.4833 83.9014 68.4593C84.8746 69.435 85.479 70.7824 85.479 72.2684V72.6398C85.479 73.7543 85.9446 74.8242 86.6901 75.8273C86.9329 76.1542 87.1928 76.459 87.4654 76.7386C91.8243 81.224 99.6629 79.7973 102.14 73.7667C102.152 73.7394 102.162 73.7123 102.174 73.6849C104.641 67.5628 106 60.8734 106 53.8671C106 24.5612 82.2147 0.810356 52.8964 0.86729ZM53.0001 72.0036C42.9821 72.0036 34.8637 63.8853 34.8637 53.8673C34.8637 43.8493 42.9821 35.7309 53.0001 35.7309C63.0181 35.7309 71.1365 43.8493 71.1365 53.8673C71.1365 63.8853 63.0183 72.0036 53.0001 72.0036Z" fill="url(#Donut-paint2_linear)"/>
<path d="M53.0003 12.5068C30.1579 12.5068 11.6406 31.0241 11.6406 53.8665C11.6406 62.4668 14.2664 70.4532 18.7588 77.07C19.6823 76.6836 20.5144 76.1216 21.2102 75.4232C22.5897 74.0463 23.4416 72.1416 23.4416 70.039C23.4416 68.7562 23.9617 67.5946 24.8014 66.755C25.6411 65.9153 26.8026 65.3953 28.0853 65.3953C29.3681 65.3953 30.5298 65.9153 31.3693 66.755C32.2088 67.5946 32.729 68.7562 32.729 70.039V83.1207C32.729 88.718 37.2663 93.2551 42.8634 93.2551H42.8659C48.4632 93.2551 53.0003 88.7178 53.0003 83.1207V82.9347C53.0003 80.2228 55.1969 78.026 57.909 78.026C59.2663 78.026 60.4921 78.5757 61.3813 79.4624C62.2681 80.3516 62.8177 81.5799 62.8177 82.9347C62.8177 84.4825 63.4444 85.8845 64.4597 86.8973C65.4727 87.9126 66.8745 88.5393 68.4223 88.5393H69.1009C72.1967 88.5393 74.7057 86.0305 74.7057 82.9345V72.2677C74.7057 69.2932 77.118 66.8809 80.0924 66.8809C81.5808 66.8809 82.9257 67.4826 83.9016 68.4585C84.8748 69.4342 85.4792 70.7816 85.4792 72.2677V72.6391C85.4792 73.7535 85.9448 74.8235 86.6903 75.8265C86.9327 76.1528 87.1921 76.4571 87.4644 76.7366C91.8203 70.1855 94.3606 62.3231 94.3606 53.8661C94.3602 31.0243 75.8427 12.5068 53.0003 12.5068ZM53.0003 72.0041C42.9833 72.0041 34.8629 63.8837 34.8629 53.8667C34.8629 43.8497 42.9833 35.7293 53.0003 35.7293C63.0173 35.7293 71.1377 43.8497 71.1377 53.8667C71.1377 63.8837 63.0175 72.0041 53.0003 72.0041Z" fill="url(#Donut-paint3_radial)"/>
<path d="M7.30038 43.1882C7.21488 43.0862 7.10846 42.9992 6.98155 42.9365C6.4913 42.6938 5.89691 42.8946 5.65427 43.3849L3.01794 48.7126C2.82167 49.1091 2.91918 49.5706 3.22186 49.8623L6.92482 53.5653C7.01033 53.6671 7.11674 53.7543 7.24345 53.817C7.7337 54.0596 8.32788 53.8588 8.57072 53.3686L11.2071 48.041C11.4033 47.6446 11.3058 47.1829 11.0031 46.8914L7.30038 43.1882Z" fill="url(#Donut-paint4_linear)"/>
<path d="M20.8865 51.3795C20.5896 51.0768 20.1221 50.9851 19.7261 51.1903C19.2404 51.4422 19.051 52.0401 19.3029 52.5258L22.0401 57.8022C22.1036 57.9246 22.1893 58.0279 22.2893 58.1105L25.9921 61.8132C26.289 62.1159 26.7565 62.2076 27.1525 62.0025C27.6382 61.7505 27.8276 61.1526 27.5757 60.6669L24.8387 55.3905C24.7754 55.2681 24.6897 55.1648 24.5895 55.0822L20.8865 51.3795Z" fill="url(#Donut-paint5_linear)"/>
<path d="M18.2998 36.9533C18.1677 36.8011 17.9899 36.6862 17.7787 36.6372C17.2458 36.5136 16.7133 36.8452 16.5897 37.3781L15.2453 43.168C15.162 43.5263 15.2879 43.881 15.5393 44.1149L19.242 47.8177C19.3741 47.9699 19.5519 48.0848 19.7631 48.1338C20.296 48.2576 20.8285 47.9258 20.9521 47.3929L22.2965 41.603C22.3798 41.2446 22.2539 40.89 22.0026 40.6561L18.2998 36.9533Z" fill="url(#Donut-paint6_linear)"/>
<path d="M14.4013 56.5891C14.3437 56.5258 14.2804 56.4666 14.2046 56.4181L9.19733 53.2158C8.73648 52.921 8.12388 53.0557 7.82906 53.5166C7.56303 53.9327 7.64957 54.47 8.00732 54.788L11.7101 58.4907C11.7676 58.5541 11.831 58.6133 11.9067 58.6617L16.914 61.8641C17.3749 62.1589 17.9875 62.0241 18.2823 61.5633C18.5483 61.1471 18.4618 60.6099 18.104 60.2919L14.4013 56.5891Z" fill="url(#Donut-paint7_linear)"/>
<path d="M31.8978 42.2938C31.6098 41.9913 31.1523 41.8901 30.7552 42.0806L25.3956 44.6502C24.9022 44.8867 24.6941 45.4786 24.9306 45.9719C24.9927 46.1015 25.0807 46.2102 25.1838 46.2978L28.8865 50.0005C29.1745 50.303 29.632 50.4043 30.0291 50.2138L35.3887 47.6441C35.8821 47.4077 36.0902 46.8158 35.8537 46.3224C35.7916 46.1928 35.7036 46.0839 35.6005 45.9968L31.8978 42.2938Z" fill="url(#Donut-paint8_linear)"/>
<path d="M3.46644 50.0397C2.97619 49.7971 2.77537 49.2027 3.01801 48.7124L5.65435 43.3849C5.89699 42.8946 6.49138 42.6938 6.98163 42.9365C7.47188 43.1791 7.6727 43.7735 7.43006 44.2637L4.79372 49.5913C4.55087 50.0813 3.95669 50.2824 3.46644 50.0397Z" fill="#BC15F6"/>
<path d="M23.3756 58.225C22.8899 58.477 22.292 58.2873 22.04 57.8018L19.3029 52.5256C19.0509 52.0399 19.2406 51.442 19.726 51.1901C20.2117 50.9381 20.8096 51.1278 21.0616 51.6132L23.7988 56.8896C24.0507 57.3751 23.8613 57.973 23.3756 58.225Z" fill="#E2EDF2"/>
<path d="M15.9865 44.3569C15.4536 44.2334 15.122 43.7009 15.2456 43.168L16.59 37.3781C16.7136 36.8452 17.2461 36.5136 17.779 36.6372C18.3119 36.7608 18.6436 37.2933 18.52 37.8261L17.1755 43.616C17.0517 44.1489 16.5194 44.4808 15.9865 44.3569Z" fill="#FA3E3E"/>
<path d="M7.82896 53.5161C8.12378 53.0553 8.73638 52.9205 9.19723 53.2153L14.2045 56.4176C14.6653 56.7125 14.8001 57.3251 14.5053 57.7859C14.2105 58.2468 13.5979 58.3815 13.137 58.0867L8.12978 54.8844C7.66893 54.5896 7.53436 53.9772 7.82896 53.5161Z" fill="#FFE7A5"/>
<path d="M32.0769 42.5459C32.3133 43.0391 32.1052 43.631 31.6119 43.8676L26.2522 46.4373C25.7591 46.6737 25.1672 46.4657 24.9306 45.9723C24.6941 45.4792 24.9022 44.8873 25.3956 44.6506L30.7552 42.0809C31.2485 41.8445 31.8402 42.0526 32.0769 42.5459Z" fill="#D83CA3"/>
<path d="M26.6178 17.4314C26.5323 17.3293 26.4258 17.2424 26.2989 17.1796C25.8087 16.937 25.2145 17.1378 24.9717 17.6281L22.3353 22.9556C22.1391 23.3521 22.2366 23.8135 22.5392 24.1052L26.2422 27.8082C26.3277 27.9101 26.4341 27.9972 26.5608 28.06C27.0511 28.3026 27.6453 28.1018 27.8881 27.6115L30.5244 22.2842C30.7207 21.8877 30.6232 21.4261 30.3205 21.1346L26.6178 17.4314Z" fill="url(#Donut-paint9_linear)"/>
<path d="M40.2039 25.6222C39.907 25.3195 39.4395 25.2278 39.0435 25.4329C38.5578 25.6849 38.3683 26.2828 38.6203 26.7685L41.3575 32.0449C41.421 32.1672 41.5067 32.2706 41.6067 32.3532L45.3095 36.0559C45.6064 36.3586 46.0738 36.4503 46.4699 36.2451C46.9556 35.9932 47.145 35.3953 46.8931 34.9096L44.1559 29.6332C44.0925 29.5108 44.0068 29.4075 43.9066 29.3249L40.2039 25.6222Z" fill="url(#Donut-paint10_linear)"/>
<path d="M37.6182 11.1965C37.4861 11.0443 37.3082 10.9294 37.0971 10.8803C36.5642 10.7567 36.0317 11.0884 35.9081 11.6213L34.5636 17.4111C34.4804 17.7695 34.6063 18.1241 34.8576 18.3581L38.5604 22.0608C38.6927 22.213 38.8703 22.3279 39.0815 22.377C39.6144 22.5008 40.1469 22.1689 40.2704 21.636L41.6149 15.8462C41.6981 15.4878 41.5723 15.1332 41.3209 14.8992L37.6182 11.1965Z" fill="url(#Donut-paint11_linear)"/>
<path d="M33.7196 30.8318C33.6621 30.7685 33.5987 30.7093 33.5229 30.6608L28.5157 27.4585C28.0548 27.1636 27.4422 27.2984 27.1474 27.7593C26.8814 28.1754 26.9679 28.7126 27.3257 29.0306L31.0284 32.7334C31.086 32.7968 31.1493 32.856 31.2251 32.9044L36.2324 36.1068C36.6932 36.4016 37.3058 36.2668 37.6006 35.806C37.8667 35.3898 37.7801 34.8526 37.4224 34.5346L33.7196 30.8318Z" fill="url(#Donut-paint12_linear)"/>
<path d="M51.2161 16.537C50.9282 16.2345 50.4706 16.1333 50.0735 16.3237L44.7139 18.8936C44.2206 19.13 44.0125 19.722 44.2489 20.2153C44.311 20.3449 44.399 20.4536 44.5021 20.5412L48.2049 24.2439C48.4929 24.5464 48.9504 24.6476 49.3475 24.4572L54.7071 21.8875C55.2005 21.6511 55.4085 21.0592 55.1721 20.5658C55.11 20.4362 55.022 20.3275 54.9189 20.2401L51.2161 16.537Z" fill="url(#Donut-paint13_linear)"/>
<path d="M22.7838 24.2829C22.2936 24.0402 22.0928 23.4458 22.3354 22.9556L24.9717 17.6281C25.2144 17.1378 25.8088 16.937 26.299 17.1796C26.7893 17.4223 26.9901 18.0167 26.7474 18.5069L24.1111 23.8344C23.8685 24.3245 23.2743 24.5255 22.7838 24.2829Z" fill="#BC15F6"/>
<path d="M42.693 32.4684C42.2073 32.7203 41.6094 32.5307 41.3574 32.0452L38.6203 26.7688C38.3683 26.2831 38.5579 25.6852 39.0434 25.4332C39.5291 25.1813 40.127 25.3709 40.379 25.8564L43.1162 31.1328C43.3683 31.6185 43.1787 32.2164 42.693 32.4684Z" fill="#E2EDF2"/>
<path d="M35.3039 18.6001C34.771 18.4765 34.4394 17.944 34.563 17.4111L35.9074 11.6213C36.031 11.0884 36.5635 10.7567 37.0964 10.8803C37.6293 11.0039 37.961 11.5364 37.8374 12.0693L36.4929 17.8592C36.3691 18.3921 35.8368 18.7239 35.3039 18.6001Z" fill="#FA3E3E"/>
<path d="M27.1474 27.7593C27.4422 27.2984 28.0548 27.1636 28.5157 27.4585L33.5229 30.6608C33.9838 30.9556 34.1186 31.5682 33.8238 32.0291C33.5289 32.4899 32.9163 32.6247 32.4555 32.3299L27.4482 29.1275C26.9874 28.8327 26.8526 28.2203 27.1474 27.7593Z" fill="#FFE7A5"/>
<path d="M51.3952 16.7886C51.6316 17.2818 51.4236 17.8737 50.9302 18.1103L45.5706 20.6802C45.0775 20.9166 44.4856 20.7086 44.2489 20.2152C44.0125 19.7221 44.2206 19.1302 44.7139 18.8935L50.0735 16.3238C50.5671 16.087 51.1588 16.2953 51.3952 16.7886Z" fill="#D83CA3"/>
<path d="M60.5474 17.6789C60.4619 17.5769 60.3555 17.4899 60.2286 17.4272C59.7384 17.1846 59.144 17.3854 58.9013 17.8756L56.265 23.2032C56.0687 23.5996 56.1663 24.0611 56.4689 24.3528L60.1719 28.0558C60.2574 28.1576 60.3638 28.2448 60.4907 28.3075C60.981 28.5502 61.5751 28.3493 61.818 27.8591L64.4543 22.5318C64.6506 22.1353 64.5531 21.6736 64.2504 21.3821L60.5474 17.6789Z" fill="url(#Donut-paint14_linear)"/>
<path d="M74.1336 25.8702C73.8367 25.5675 73.3692 25.4758 72.9732 25.681C72.4875 25.9329 72.298 26.5308 72.55 27.0165L75.2871 32.2929C75.3507 32.4153 75.4364 32.5186 75.5364 32.6012L79.2391 36.304C79.536 36.6066 80.0035 36.6983 80.3996 36.4932C80.8853 36.2412 81.0747 35.6433 80.8227 35.1576L78.0856 29.8812C78.0222 29.7589 77.9365 29.6556 77.8363 29.573L74.1336 25.8702Z" fill="url(#Donut-paint15_linear)"/>
<path d="M71.5479 11.444C71.4158 11.2919 71.2379 11.177 71.0268 11.1279C70.4939 11.0043 69.9614 11.336 69.8378 11.8689L68.4933 17.6587C68.4101 18.0171 68.536 18.3717 68.7873 18.6057L72.4901 22.3084C72.6221 22.4606 72.8 22.5755 73.0112 22.6245C73.544 22.7481 74.0765 22.4165 74.2001 21.8836L75.5446 16.0937C75.6278 15.7354 75.5019 15.3807 75.2506 15.1468L71.5479 11.444Z" fill="url(#Donut-paint16_linear)"/>
<path d="M67.6493 31.0799C67.5918 31.0165 67.5284 30.9573 67.4526 30.9089L62.4454 27.7065C61.9845 27.4117 61.3719 27.5465 61.0771 28.0073C60.8111 28.4234 60.8976 28.9607 61.2554 29.2787L64.9581 32.9814C65.0157 33.0448 65.079 33.104 65.1548 33.1525L70.1621 36.3548C70.6229 36.6496 71.2355 36.5149 71.5303 36.054C71.7964 35.6379 71.7098 35.1006 71.3521 34.7826L67.6493 31.0799Z" fill="url(#Donut-paint17_linear)"/>
<path d="M85.1458 16.7845C84.8578 16.4821 84.4003 16.3808 84.0032 16.5713L78.6436 19.141C78.1502 19.3774 77.9422 19.9693 78.1786 20.4627C78.2407 20.5923 78.3287 20.7012 78.4318 20.7885L82.1345 24.4913C82.4225 24.7937 82.8801 24.895 83.2771 24.7045L88.6368 22.1348C89.1301 21.8984 89.3382 21.3065 89.1018 20.8132C89.0396 20.6836 88.9517 20.5747 88.8486 20.4875L85.1458 16.7845Z" fill="url(#Donut-paint18_linear)"/>
<path d="M56.7145 24.5299C56.2242 24.2873 56.0234 23.6929 56.2661 23.2027L58.9024 17.8751C59.145 17.3849 59.7394 17.1841 60.2297 17.4267C60.7199 17.6693 60.9208 18.2637 60.6781 18.754L58.0418 24.0815C57.7991 24.5718 57.2047 24.7726 56.7145 24.5299Z" fill="#BC15F6"/>
<path d="M76.6227 32.7164C76.137 32.9684 75.5391 32.7787 75.2871 32.2932L72.5499 27.0168C72.298 26.5312 72.4876 25.9332 72.9731 25.6813C73.4588 25.4293 74.0567 25.619 74.3087 26.1045L77.0459 31.3809C77.2978 31.8663 77.1082 32.4645 76.6227 32.7164Z" fill="#E2EDF2"/>
<path d="M69.2346 18.8477C68.7017 18.7241 68.37 18.1916 68.4936 17.6587L69.8381 11.8689C69.9617 11.336 70.4942 11.0043 71.0271 11.1279C71.56 11.2515 71.8916 11.784 71.768 12.3169L70.4236 18.1067C70.3 18.6396 69.7675 18.9713 69.2346 18.8477Z" fill="#FA3E3E"/>
<path d="M61.0771 28.0073C61.3719 27.5465 61.9845 27.4117 62.4454 27.7065L67.4526 30.9089C67.9135 31.2037 68.0482 31.8163 67.7534 32.2771C67.4586 32.738 66.846 32.8728 66.3852 32.5779L61.3779 29.3756C60.9171 29.0808 60.7823 28.4682 61.0771 28.0073Z" fill="#FFE7A5"/>
<path d="M85.3251 17.0366C85.5615 17.5298 85.3535 18.1217 84.8601 18.3583L79.5003 20.928C79.0069 21.1644 78.4152 20.9564 78.1786 20.463C77.9422 19.9698 78.1502 19.3779 78.6436 19.1413L84.0032 16.5716C84.497 16.3352 85.0887 16.5435 85.3251 17.0366Z" fill="#D83CA3"/>
<path d="M76.398 41.9495C76.3125 41.8474 76.2061 41.7604 76.0792 41.6977C75.5889 41.4551 74.9946 41.6559 74.7519 42.1461L72.1156 47.4737C71.9193 47.8701 72.0168 48.3316 72.3195 48.6233L76.0225 52.3263C76.108 52.4281 76.2144 52.5153 76.3411 52.578C76.8313 52.8207 77.4255 52.6198 77.6684 52.1296L80.3047 46.8021C80.501 46.4056 80.4035 45.9439 80.1008 45.6524L76.398 41.9495Z" fill="url(#Donut-paint19_linear)"/>
<path d="M89.9841 50.1412C89.6873 49.8385 89.2198 49.7468 88.8237 49.952C88.338 50.2039 88.1486 50.8018 88.4006 51.2875L91.1377 56.5639C91.2013 56.6863 91.287 56.7896 91.387 56.8722L95.0897 60.575C95.3866 60.8776 95.8541 60.9694 96.2502 60.7642C96.7359 60.5122 96.9253 59.9143 96.6733 59.4286L93.9362 54.1522C93.8728 54.0299 93.7871 53.9266 93.6869 53.844L89.9841 50.1412Z" fill="url(#Donut-paint20_linear)"/>
<path d="M87.3984 35.7145C87.2664 35.5624 87.0885 35.4475 86.8773 35.3984C86.3444 35.2748 85.812 35.6065 85.6884 36.1394L84.3439 41.9292C84.2607 42.2876 84.3866 42.6422 84.6379 42.8762L88.3406 46.5789C88.4727 46.7311 88.6506 46.846 88.8617 46.8951C89.3946 47.0189 89.9271 46.687 90.0507 46.1541L91.3952 40.3643C91.4784 40.0059 91.3525 39.6512 91.1012 39.4173L87.3984 35.7145Z" fill="url(#Donut-paint21_linear)"/>
<path d="M83.4999 55.3509C83.4423 55.2875 83.379 55.2283 83.3032 55.1798L78.296 51.9775C77.8351 51.6827 77.2225 51.8175 76.9277 52.2783C76.6617 52.6944 76.7482 53.2317 77.1059 53.5497L80.8087 57.2524C80.8663 57.3158 80.9296 57.375 81.0054 57.4234L86.0126 60.6258C86.4735 60.9206 87.0861 60.7858 87.3809 60.325C87.6469 59.9089 87.5604 59.3716 87.2026 59.0536L83.4999 55.3509Z" fill="url(#Donut-paint22_linear)"/>
<path d="M100.996 41.0555C100.708 40.7531 100.251 40.6518 99.8538 40.8423L94.4942 43.412C94.0008 43.6484 93.7928 44.2403 94.0292 44.7337C94.0913 44.8633 94.1793 44.9722 94.2824 45.0595L97.9851 48.7623C98.2731 49.0647 98.7307 49.166 99.1277 48.9755L104.487 46.4058C104.981 46.1694 105.189 45.5775 104.952 45.0842C104.89 44.9546 104.802 44.8457 104.699 44.7585L100.996 41.0555Z" fill="url(#Donut-paint23_linear)"/>
<path d="M72.5641 48.8009C72.0738 48.5583 71.873 47.9639 72.1157 47.4737L74.752 42.1461C74.9946 41.6559 75.589 41.4551 76.0793 41.6977C76.5695 41.9403 76.7703 42.5347 76.5277 43.025L73.8914 48.3525C73.6485 48.843 73.0543 49.0438 72.5641 48.8009Z" fill="#BC15F6"/>
<path d="M92.4732 56.9869C91.9875 57.2389 91.3896 57.0492 91.1377 56.5638L88.4005 51.2874C88.1486 50.8017 88.3382 50.2038 88.8237 49.9518C89.3094 49.6998 89.9073 49.8895 90.1592 50.375L92.8964 55.6514C93.1486 56.1371 92.9589 56.735 92.4732 56.9869Z" fill="#E2EDF2"/>
<path d="M85.0852 43.1187C84.5523 42.9951 84.2206 42.4626 84.3442 41.9297L85.6887 36.1399C85.8123 35.607 86.3447 35.2753 86.8776 35.3989C87.4105 35.5225 87.7422 36.055 87.6186 36.5879L86.2741 42.3777C86.1503 42.9106 85.6181 43.2423 85.0852 43.1187Z" fill="#FA3E3E"/>
<path d="M76.9277 52.2778C77.2225 51.817 77.8351 51.6822 78.296 51.977L83.3032 55.1794C83.764 55.4742 83.8988 56.0868 83.604 56.5476C83.3092 57.0085 82.6966 57.1433 82.2358 56.8484L77.2285 53.6461C76.7677 53.3515 76.6329 52.7389 76.9277 52.2778Z" fill="#FFE7A5"/>
<path d="M101.175 41.3077C101.412 41.8008 101.204 42.3927 100.71 42.6294L95.3509 45.199C94.8577 45.4355 94.2658 45.2274 94.0292 44.734C93.7928 44.2409 94.0008 43.649 94.4942 43.4123L99.8538 40.8427C100.347 40.6062 100.939 40.8143 101.175 41.3077Z" fill="#D83CA3"/>
</g>
<defs>
<linearGradient id="Donut-paint0_linear" x1="104.266" y1="2.60059" x2="1.7334" y2="2.60059" gradientUnits="userSpaceOnUse">
<stop stop-color="#C89B55"/>
<stop offset="1" stop-color="#C38337"/>
</linearGradient>
<radialGradient id="Donut-paint1_radial" cx="0" cy="0" r="1" gradientUnits="userSpaceOnUse" gradientTransform="translate(52.9993 53.8678) scale(41.3589)">
<stop stop-color="#FF5D00"/>
<stop offset="0.218" stop-color="#FF6D0F" stop-opacity="0.782"/>
<stop offset="0.643" stop-color="#FF9737" stop-opacity="0.357"/>
<stop offset="1" stop-color="#FFBF5C" stop-opacity="0"/>
</radialGradient>
<linearGradient id="Donut-paint2_linear" x1="53" y1="0.867187" x2="53" y2="93.2558" gradientUnits="userSpaceOnUse">
<stop stop-color="#D32679"/>
<stop offset="1" stop-color="#AE206D"/>
<stop offset="1" stop-color="#AE206D"/>
</linearGradient>
<radialGradient id="Donut-paint3_radial" cx="0" cy="0" r="1" gradientUnits="userSpaceOnUse" gradientTransform="translate(52.9993 52.8823) scale(32.6098)">
<stop stop-color="#504B37"/>
<stop offset="0.492" stop-color="#4D3634" stop-opacity="0.508"/>
<stop offset="0.873" stop-color="#43312C" stop-opacity="0.128"/>
<stop offset="1" stop-color="#3E2E28" stop-opacity="0"/>
</radialGradient>
<linearGradient id="Donut-paint4_linear" x1="9.33727" y1="49.6017" x2="4.38364" y2="46.877" gradientUnits="userSpaceOnUse">
<stop stop-color="#3E2E28" stop-opacity="0"/>
<stop offset="1" stop-color="#503837"/>
</linearGradient>
<linearGradient id="Donut-paint5_linear" x1="25.8534" y1="59.012" x2="22.1934" y2="55.352" gradientUnits="userSpaceOnUse">
<stop stop-color="#3E2E28" stop-opacity="0"/>
<stop offset="1" stop-color="#503837"/>
</linearGradient>
<linearGradient id="Donut-paint6_linear" x1="20.0992" y1="43.7157" x2="15.4997" y2="39.1162" gradientUnits="userSpaceOnUse">
<stop stop-color="#3E2E28" stop-opacity="0"/>
<stop offset="1" stop-color="#503837"/>
</linearGradient>
<linearGradient id="Donut-paint7_linear" x1="14.2226" y1="60.6849" x2="12.7366" y2="56.6819" gradientUnits="userSpaceOnUse">
<stop stop-color="#3E2E28" stop-opacity="0"/>
<stop offset="1" stop-color="#503837"/>
</linearGradient>
<linearGradient id="Donut-paint8_linear" x1="31.1535" y1="47.9191" x2="29.6259" y2="44.3692" gradientUnits="userSpaceOnUse">
<stop stop-color="#3E2E28" stop-opacity="0"/>
<stop offset="1" stop-color="#503837"/>
</linearGradient>
<linearGradient id="Donut-paint9_linear" x1="28.6548" y1="23.846" x2="23.702" y2="21.1213" gradientUnits="userSpaceOnUse">
<stop stop-color="#3E2E28" stop-opacity="0"/>
<stop offset="1" stop-color="#503837"/>
</linearGradient>
<linearGradient id="Donut-paint10_linear" x1="45.1716" y1="33.2564" x2="41.5115" y2="29.5964" gradientUnits="userSpaceOnUse">
<stop stop-color="#3E2E28" stop-opacity="0"/>
<stop offset="1" stop-color="#503837"/>
</linearGradient>
<linearGradient id="Donut-paint11_linear" x1="39.4173" y1="17.9595" x2="34.8178" y2="13.36" gradientUnits="userSpaceOnUse">
<stop stop-color="#3E2E28" stop-opacity="0"/>
<stop offset="1" stop-color="#503837"/>
</linearGradient>
<linearGradient id="Donut-paint12_linear" x1="33.5386" y1="34.9275" x2="32.0546" y2="30.9245" gradientUnits="userSpaceOnUse">
<stop stop-color="#3E2E28" stop-opacity="0"/>
<stop offset="1" stop-color="#503837"/>
</linearGradient>
<linearGradient id="Donut-paint13_linear" x1="50.4711" y1="22.1624" x2="48.9435" y2="18.6125" gradientUnits="userSpaceOnUse">
<stop stop-color="#3E2E28" stop-opacity="0"/>
<stop offset="1" stop-color="#503837"/>
</linearGradient>
<linearGradient id="Donut-paint14_linear" x1="62.5843" y1="24.0933" x2="57.6295" y2="21.3685" gradientUnits="userSpaceOnUse">
<stop stop-color="#3E2E28" stop-opacity="0"/>
<stop offset="1" stop-color="#503837"/>
</linearGradient>
<linearGradient id="Donut-paint15_linear" x1="79.1006" y1="33.5045" x2="75.4406" y2="29.8445" gradientUnits="userSpaceOnUse">
<stop stop-color="#3E2E28" stop-opacity="0"/>
<stop offset="1" stop-color="#503837"/>
</linearGradient>
<linearGradient id="Donut-paint16_linear" x1="73.3463" y1="18.2072" x2="68.7468" y2="13.6077" gradientUnits="userSpaceOnUse">
<stop stop-color="#3E2E28" stop-opacity="0"/>
<stop offset="1" stop-color="#503837"/>
</linearGradient>
<linearGradient id="Donut-paint17_linear" x1="67.4691" y1="35.1768" x2="65.983" y2="31.1717" gradientUnits="userSpaceOnUse">
<stop stop-color="#3E2E28" stop-opacity="0"/>
<stop offset="1" stop-color="#503837"/>
</linearGradient>
<linearGradient id="Donut-paint18_linear" x1="84.3989" y1="22.4095" x2="82.8734" y2="18.8597" gradientUnits="userSpaceOnUse">
<stop stop-color="#3E2E28" stop-opacity="0"/>
<stop offset="1" stop-color="#503837"/>
</linearGradient>
<linearGradient id="Donut-paint19_linear" x1="78.434" y1="48.3625" x2="73.4812" y2="45.6398" gradientUnits="userSpaceOnUse">
<stop stop-color="#3E2E28" stop-opacity="0"/>
<stop offset="1" stop-color="#503837"/>
</linearGradient>
<linearGradient id="Donut-paint20_linear" x1="94.9512" y1="57.7753" x2="91.2912" y2="54.1153" gradientUnits="userSpaceOnUse">
<stop stop-color="#3E2E28" stop-opacity="0"/>
<stop offset="1" stop-color="#503837"/>
</linearGradient>
<linearGradient id="Donut-paint21_linear" x1="89.1965" y1="42.4779" x2="84.597" y2="37.8763" gradientUnits="userSpaceOnUse">
<stop stop-color="#3E2E28" stop-opacity="0"/>
<stop offset="1" stop-color="#503837"/>
</linearGradient>
<linearGradient id="Donut-paint22_linear" x1="83.3195" y1="59.446" x2="81.8334" y2="55.443" gradientUnits="userSpaceOnUse">
<stop stop-color="#3E2E28" stop-opacity="0"/>
<stop offset="1" stop-color="#503837"/>
</linearGradient>
<linearGradient id="Donut-paint23_linear" x1="100.249" y1="46.6806" x2="98.7239" y2="43.1307" gradientUnits="userSpaceOnUse">
<stop stop-color="#3E2E28" stop-opacity="0"/>
<stop offset="1" stop-color="#503837"/>
</linearGradient>
<clipPath id="Donut-clip0">
<rect width="106" height="106" fill="white"/>
</clipPath>
</defs>
</svg>
