<svg width="120" height="120" viewBox="0 0 120 120" fill="none" xmlns="http://www.w3.org/2000/svg">
<path d="M59.9409 45.0447V25.0171H32.4588V45.3304C14.1321 47.7951 0 63.494 0 82.4957C0 103.209 16.7911 120 37.5042 120H57.9401C78.653 120 95.4443 103.209 95.4443 82.4957C95.4443 62.454 79.7236 46.0848 59.9409 45.0447Z" fill="#FAF5EF"/>
<path d="M59.9185 24.5527L62.4502 0H29.9492L32.4809 24.5527H59.9185Z" fill="#D3AF77"/>
<path d="M59.9411 45.0447V25.0171H46.2002V120H57.94C78.6529 120 95.4443 103.209 95.4443 82.4957C95.4445 62.454 79.7238 46.0848 59.9411 45.0447Z" fill="#E9D7BB"/>
<path d="M62.4506 0H46.2002V24.5527H59.9189L62.4506 0Z" fill="url(#paint0_linear)"/>
<path d="M70.7381 100.859H23.3384V65.1982H70.8966L70.7381 100.859Z" fill="white" fill-opacity="0.6"/>
<path d="M68.9587 65.1982H46.2002V100.859H68.8129L68.9587 65.1982Z" fill="#FAF5EF"/>
<path d="M25.4834 21.1794H66.9162V28.1662H25.4834V21.1794Z" fill="#D3D3D3"/>
<path d="M46.2002 21.1794H66.9164V28.1662H46.2002V21.1794Z" fill="#A8A7A7"/>
<path d="M79.6794 95.7144L62.4058 84.7405C62.4058 80.2135 65.0322 74.4371 70.2116 67.5716C73.9077 62.6722 79.6794 56.8853 79.6794 56.8853C79.6794 56.8853 88.3164 90.0104 79.6794 95.7144Z" fill="url(#paint1_linear)"/>
<path d="M89.147 67.5716C85.4509 62.6722 79.6792 56.8853 79.6792 56.8853V95.7144C79.6792 92.5288 96.9529 84.7405 96.9529 84.7405C96.9529 80.2135 94.3267 74.4371 89.147 67.5716Z" fill="#DEC399"/>
<path d="M79.6806 90.7723C76.0011 84.5508 69.1951 80.3687 61.4581 80.3687H46.3208V88.0116C46.3208 92.6611 47.8028 97.0721 50.6063 100.768L76.723 109.63L82.5805 108.843L90.7836 97.3564C90.7838 97.3564 83.36 84.5508 79.6806 90.7723Z" fill="#DEC399"/>
<path d="M97.8459 80.3687C90.1089 80.3687 83.3601 84.5508 79.6807 90.7723V109.232L82.5808 108.843L108.698 100.768C111.501 97.0721 112.983 92.6612 112.983 88.0119V80.3689H97.8459V80.3687Z" fill="url(#paint2_linear)"/>
<path d="M79.6793 106.988C76.1632 101.022 69.6445 97.009 62.2324 97.009H39.3042V99.7946C39.3042 110.936 48.3684 120 59.5094 120H79.6793C90.8205 120 83.1954 101.022 79.6793 106.988Z" fill="url(#paint3_linear)"/>
<path d="M97.0717 97.009C89.6596 97.009 83.1953 101.022 79.6792 106.988V120H99.7947C110.936 120 120 110.936 120 99.7948V97.0093L97.0717 97.009Z" fill="#DEC399"/>
<defs>
<linearGradient id="paint0_linear" x1="62.4506" y1="1.06014e-06" x2="46.2002" y2="8.80219e-07" gradientUnits="userSpaceOnUse">
<stop stop-color="#C89B55"/>
<stop offset="1" stop-color="#D7B383"/>
</linearGradient>
<linearGradient id="paint1_linear" x1="83.5181" y1="56.8853" x2="62.4058" y2="56.8853" gradientUnits="userSpaceOnUse">
<stop stop-color="#C89B55"/>
<stop offset="1" stop-color="#D7B383"/>
</linearGradient>
<linearGradient id="paint2_linear" x1="112.983" y1="80.3687" x2="79.6807" y2="80.3687" gradientUnits="userSpaceOnUse">
<stop stop-color="#C89B55"/>
<stop offset="1" stop-color="#D7B383"/>
</linearGradient>
<linearGradient id="paint3_linear" x1="85.5084" y1="97.009" x2="39.3042" y2="97.009" gradientUnits="userSpaceOnUse">
<stop stop-color="#C89B55"/>
<stop offset="1" stop-color="#D7B383"/>
</linearGradient>
</defs>
</svg>
