<svg width="56" height="56" viewBox="0 0 56 56" fill="none" xmlns="http://www.w3.org/2000/svg">
<g clip-path="url(#clip0)">
<path d="M30.6437 25.3546C30.3594 25.0686 30.0442 24.8151 29.7039 24.5987C28.8026 24.0215 27.7547 23.7149 26.6844 23.7149C25.1989 23.7121 23.7737 24.3023 22.7252 25.3546L17.6381 30.4457C16.5913 31.4945 16.0029 32.9155 16.002 34.3974C16 37.4896 18.5051 39.998 21.5974 39.9999C23.0806 40.0051 24.5044 39.4177 25.5527 38.3682L29.7519 34.169C29.8282 34.0933 29.8708 33.9901 29.8702 33.8827C29.8689 33.6618 29.6888 33.4838 29.4679 33.4851H29.308C28.4306 33.4882 27.5611 33.3197 26.7485 32.9892C26.5987 32.9276 26.4266 32.9624 26.3126 33.0772L23.2931 36.1006C22.3555 37.0383 20.8353 37.0383 19.8977 36.1006C18.9601 35.163 18.9601 33.6429 19.8977 32.7052L25.0048 27.6022C25.9417 26.6665 27.4593 26.6665 28.3962 27.6022C29.0276 28.1964 30.0124 28.1964 30.6438 27.6022C30.9154 27.3303 31.0801 26.9697 31.1077 26.5863C31.1369 26.1282 30.968 25.6796 30.6437 25.3546Z" fill="#E9E9E9"/>
<path d="M38.3578 17.64C36.1711 15.4533 32.6259 15.4533 30.4392 17.64L26.2439 21.8312C26.1287 21.947 26.0955 22.1211 26.16 22.2712C26.2237 22.4216 26.3725 22.5182 26.5359 22.5151H26.6838C27.5601 22.5135 28.4283 22.6833 29.2394 23.015C29.3891 23.0767 29.5612 23.0419 29.6753 22.9271L32.6867 19.9196C33.6244 18.982 35.1445 18.982 36.0821 19.9196C37.0197 20.8572 37.0197 22.3774 36.0821 23.315L32.3308 27.0623L32.2988 27.0983L30.987 28.4021C30.0502 29.3377 28.5325 29.3377 27.5956 28.4021C26.9642 27.8078 25.9794 27.8078 25.348 28.4021C25.0747 28.676 24.9098 29.0397 24.8841 29.4259C24.8549 29.884 25.0238 30.3326 25.348 30.6577C25.8109 31.1225 26.3525 31.5016 26.9477 31.7774C27.0317 31.8174 27.1157 31.8494 27.1997 31.8854C27.2837 31.9214 27.3717 31.9494 27.4556 31.9814C27.5396 32.0134 27.6276 32.0414 27.7116 32.0654L27.9475 32.1294C28.1075 32.1693 28.2675 32.2013 28.4314 32.2293C28.6289 32.2587 28.8278 32.2774 29.0274 32.2853H29.3073H29.3313L29.5712 32.2573C29.6592 32.2534 29.7512 32.2334 29.8552 32.2334H29.9912L30.2671 32.1934L30.3951 32.1694L30.6271 32.1214H30.6711C31.6534 31.8746 32.5505 31.366 33.2666 30.6496L38.3576 25.5586C40.5444 23.3719 40.5444 19.8266 38.3578 17.64Z" fill="#E9E9E9"/>
</g>
<defs>
<clipPath id="clip0">
<rect width="24" height="24" fill="white" transform="translate(16 16)"/>
</clipPath>
</defs>
</svg>
