<svg width="56" height="56" viewBox="0 0 56 56" fill="none" xmlns="http://www.w3.org/2000/svg">
<g clip-path="url(#clip0)">
<path d="M39.9943 40V39.999H40.0003V31.197C40.0003 26.891 39.0733 23.574 34.0393 23.574C31.6193 23.574 29.9953 24.902 29.3323 26.161H29.2623V23.976H24.4893V39.999H29.4593V32.065C29.4593 29.976 29.8553 27.956 32.4423 27.956C34.9913 27.956 35.0293 30.34 35.0293 32.199V40H39.9943Z" fill="#E9E9E9"/>
<path d="M16.3955 23.9771H21.3715V40H16.3955V23.9771Z" fill="#E9E9E9"/>
<path d="M18.882 16C17.291 16 16 17.291 16 18.882C16 20.473 17.291 21.791 18.882 21.791C20.473 21.791 21.764 20.473 21.764 18.882C21.763 17.291 20.472 16 18.882 16V16Z" fill="#E9E9E9"/>
</g>
<defs>
<clipPath id="clip0">
<rect width="24" height="24" fill="white" transform="translate(16 16)"/>
</clipPath>
</defs>
</svg>
