<svg width="20" height="20" viewBox="0 0 20 20" fill="none" xmlns="http://www.w3.org/2000/svg">
<path d="M15.8332 10.0001C15.8332 10.4603 15.4601 10.8334 14.9998 10.8334H10.8332V15.0001C10.8332 15.4603 10.4601 15.8334 9.99984 15.8334C9.5396 15.8334 9.1665 15.4603 9.1665 15.0001V10.8334H4.99984C4.5396 10.8334 4.1665 10.4603 4.1665 10.0001C4.1665 9.53984 4.5396 9.16675 4.99984 9.16675H9.1665V5.00008C9.1665 4.53984 9.5396 4.16675 9.99984 4.16675C10.4601 4.16675 10.8332 4.53984 10.8332 5.00008V9.16675H14.9998C15.4601 9.16675 15.8332 9.53984 15.8332 10.0001Z" fill="#DEC399"/>
</svg>
