<svg width="56" height="56" viewBox="0 0 56 56" fill="none" xmlns="http://www.w3.org/2000/svg">
<path d="M28 16C25.6266 16 23.3066 16.7038 21.3332 18.0224C19.3598 19.3409 17.8217 21.2151 16.9135 23.4078C16.0052 25.6005 15.7676 28.0133 16.2306 30.3411C16.6936 32.6689 17.8365 34.807 19.5147 36.4853C21.193 38.1635 23.3311 39.3064 25.6589 39.7694C27.9867 40.2324 30.3995 39.9948 32.5922 39.0866C34.7849 38.1783 36.6591 36.6402 37.9776 34.6668C39.2962 32.6935 40 30.3734 40 28C40.0001 26.4241 39.6898 24.8636 39.0868 23.4076C38.4838 21.9517 37.5999 20.6288 36.4856 19.5144C35.3712 18.4001 34.0483 17.5162 32.5924 16.9132C31.1364 16.3102 29.5759 15.9999 28 16ZM31.8154 34.183C31.7705 34.295 31.7022 34.3961 31.615 34.4795C31.5278 34.5629 31.4238 34.6267 31.3099 34.6667C31.1961 34.7066 31.075 34.7218 30.9548 34.7111C30.8346 34.7004 30.7181 34.6642 30.613 34.6048L27.3554 32.0735L25.2646 34.0024C25.2161 34.0382 25.1594 34.0613 25.0996 34.0695C25.0398 34.0776 24.979 34.0706 24.9226 34.0491L25.3234 30.463L25.3363 30.4731L25.3445 30.4023C25.3445 30.4023 31.2065 25.0653 31.4453 24.838C31.687 24.6112 31.6073 24.562 31.6073 24.562C31.621 24.2853 31.1734 24.562 31.1734 24.562L23.4064 29.5588L20.1718 28.4572C20.1718 28.4572 19.675 28.279 19.6282 27.8872C19.579 27.4984 20.188 27.2872 20.188 27.2872L33.0484 22.1782C33.0484 22.1782 34.1056 21.7072 34.1056 22.4872L31.8154 34.183Z" fill="#E9E9E9"/>
</svg>
