<svg width="56" height="56" viewBox="0 0 56 56" fill="none" xmlns="http://www.w3.org/2000/svg">
<g clip-path="url(#clip0)">
<path d="M40 20.5585C39.1075 20.95 38.1565 21.2095 37.165 21.3355C38.185 20.7265 38.9635 19.7695 39.3295 18.616C38.3785 19.183 37.3285 19.5835 36.2095 19.807C35.3065 18.8455 34.0195 18.25 32.6155 18.25C29.8915 18.25 27.6985 20.461 27.6985 23.1715C27.6985 23.5615 27.7315 23.9365 27.8125 24.2935C23.722 24.094 20.1025 22.1335 17.671 19.147C17.2465 19.8835 16.9975 20.7265 16.9975 21.634C16.9975 23.338 17.875 24.8485 19.183 25.723C18.3925 25.708 17.617 25.4785 16.96 25.117C16.96 25.132 16.96 25.1515 16.96 25.171C16.96 27.562 18.6655 29.548 20.902 30.0055C20.5015 30.115 20.065 30.1675 19.612 30.1675C19.297 30.1675 18.979 30.1495 18.6805 30.0835C19.318 32.032 21.127 33.4645 23.278 33.511C21.604 34.8205 19.4785 35.6095 17.1775 35.6095C16.774 35.6095 16.387 35.5915 16 35.542C18.1795 36.9475 20.7625 37.75 23.548 37.75C32.602 37.75 37.552 30.25 37.552 23.749C37.552 23.5315 37.5445 23.3215 37.534 23.113C38.5105 22.42 39.331 21.5545 40 20.5585Z" fill="#E9E9E9"/>
</g>
<defs>
<clipPath id="clip0">
<rect width="24" height="24" fill="white" transform="translate(16 16)"/>
</clipPath>
</defs>
</svg>
