<svg width="56" height="56" viewBox="0 0 56 56" fill="none" xmlns="http://www.w3.org/2000/svg">
<g clip-path="url(#clip0)">
<path d="M39.1551 29.893C39.8711 23.866 38.8111 20.061 36.8991 18.34L36.9001 18.339C33.8141 15.4 23.3921 14.965 19.7001 18.471C18.0421 20.186 17.4581 22.703 17.3941 25.819C17.3301 28.936 17.2541 34.775 22.6951 36.359H22.7001L22.6951 38.778C22.6951 38.778 22.6581 39.758 23.2841 39.955C24.0001 40.187 24.3241 39.732 26.5511 37.072C30.2751 37.395 33.1351 36.655 33.4601 36.547C34.2121 36.295 38.4671 35.732 39.1551 29.893ZM26.9181 35.37C26.9181 35.37 24.5611 38.309 23.8281 39.072C23.5881 39.32 23.3251 39.297 23.3291 38.805C23.3291 38.482 23.3471 34.789 23.3471 34.789C18.7341 33.467 19.0061 28.495 19.0561 25.894C19.1061 23.292 19.5821 21.161 20.9861 19.726C24.2251 16.689 33.3621 17.368 35.6901 19.556C38.5361 22.079 37.5231 29.207 37.5291 29.45C36.9441 34.324 33.4961 34.633 32.8621 34.844C32.5911 34.934 30.0761 35.581 26.9181 35.37Z" fill="#E9E9E9"/>
<path d="M28.2221 20.2969C27.8371 20.2969 27.8371 20.8969 28.2221 20.9019C31.2091 20.9249 33.6691 23.0069 33.6961 26.8259C33.6961 27.2289 34.2861 27.2239 34.2811 26.8209H34.2801C34.2481 22.7059 31.5621 20.3199 28.2221 20.2969Z" fill="#E9E9E9"/>
<path d="M32.151 26.193C32.142 26.591 32.731 26.61 32.736 26.207C32.785 23.938 31.3859 22.069 28.7569 21.872C28.3719 21.844 28.3319 22.449 28.7159 22.477C30.9959 22.65 32.197 24.206 32.151 26.193Z" fill="#E9E9E9"/>
<path d="M31.521 28.7741C31.027 28.4881 30.524 28.6661 30.316 28.9471L29.881 29.5101C29.66 29.7961 29.247 29.7581 29.247 29.7581C26.233 28.9611 25.427 25.8071 25.427 25.8071C25.427 25.8071 25.39 25.3801 25.666 25.1511L26.21 24.7011C26.482 24.4851 26.654 23.9651 26.377 23.4541C25.637 22.1171 25.14 21.6561 24.887 21.3021C24.621 20.9691 24.221 20.8941 23.805 21.1191H23.796C22.931 21.6251 21.984 22.5721 22.287 23.5471C22.804 24.5751 23.754 27.8521 26.782 30.3281C28.205 31.4991 30.457 32.6991 31.413 32.9761L31.422 32.9901C32.364 33.3041 33.28 32.3201 33.769 31.4291V31.4221C33.986 30.9911 33.914 30.5831 33.597 30.3161C33.035 29.7681 32.187 29.1631 31.521 28.7741Z" fill="#E9E9E9"/>
<path d="M29.1691 24.1042C30.1301 24.1602 30.5961 24.6622 30.6461 25.6932C30.6641 26.0962 31.2491 26.0682 31.2311 25.6652C31.1671 24.3192 30.4651 23.5692 29.2011 23.4992C28.8161 23.4762 28.7801 24.0812 29.1691 24.1042Z" fill="#E9E9E9"/>
</g>
<defs>
<clipPath id="clip0">
<rect width="24" height="24" fill="white" transform="translate(16 16)"/>
</clipPath>
</defs>
</svg>
